# xmcd
#
# Track frame offsets: 
#        150
#        3681
#        20571
#        37619
#        54893
#        73408
#        89113
#        105056
#        121564
#        139324
#        149298
#        168748
#        183298
#        204484
#        221119
#
# Disc length: 3284 seconds
#
# Revision: 0
# Processed by: cddbd v1.5.2PL0 Copyright (c) Steve Scherf et al.
# Submitted via: ExactAudioCopy v1.3
#
DISCID=d30cd20f
DTITLE=Troy Redfern - Dirt Blues Ritual
DYEAR=2017
DGENRE=
TTITLE0=Revelator
TTITLE1=The Brave
TTITLE2=Jelly Roll
TTITLE3=I See Love
TTITLE4=Cold Light Of Day
TTITLE5=Ray Gun
TTITLE6=The Line
TTITLE7=Ain't No Judgment Day
TTITLE8=Sign Of The Times
TTITLE9=On The Skin
TTITLE10=My Time Ain't Long
TTITLE11=Time's Gonna Wash You Away
TTITLE12=Shine Your Light
TTITLE13=Born To Lose
TTITLE14=Walls Are Falling
EXTD=
EXTT0=
EXTT1=
EXTT2=
EXTT3=
EXTT4=
EXTT5=
EXTT6=
EXTT7=
EXTT8=
EXTT9=
EXTT10=
EXTT11=
EXTT12=
EXTT13=
EXTT14=
PLAYORDER=
